<svg width="30" height="30" viewBox="0 0 30 30" fill="none" xmlns="http://www.w3.org/2000/svg">
<path d="M15 0C6.72875 0 0 6.72875 0 15C0 23.2712 6.72875 30 15 30C23.2712 30 30 23.2712 30 15C30 6.72875 23.2712 0 15 0ZM21.5625 16.25H16.25V21.5625C16.25 22.2525 15.69 22.8125 15 22.8125C14.31 22.8125 13.75 22.2525 13.75 21.5625V16.25H8.4375C7.7475 16.25 7.1875 15.69 7.1875 15C7.1875 14.31 7.7475 13.75 8.4375 13.75H13.75V8.4375C13.75 7.7475 14.31 7.1875 15 7.1875C15.69 7.1875 16.25 7.7475 16.25 8.4375V13.75H21.5625C22.2525 13.75 22.8125 14.31 22.8125 15C22.8125 15.69 22.2525 16.25 21.5625 16.25Z" fill="#096FA0"/>
</svg>
