<svg width="23" height="23" viewBox="0 0 23 23" fill="none" xmlns="http://www.w3.org/2000/svg">
<path d="M4.66085 14.9533C6.93799 17.6056 9.67918 19.6938 12.8079 21.1714C13.9991 21.7214 15.5921 22.374 17.3669 22.4859C17.477 22.4905 17.5822 22.4952 17.6922 22.4952C18.8834 22.4952 19.8402 22.0943 20.62 21.2693C20.6248 21.2646 20.6343 21.2553 20.6391 21.246C20.9166 20.9197 21.2323 20.626 21.5624 20.3137C21.7873 20.104 22.0169 19.8849 22.237 19.6612C23.2559 18.6264 23.2559 17.3119 22.2274 16.3097L19.3523 13.5083C18.8643 13.0142 18.2807 12.7532 17.6683 12.7532C17.056 12.7532 16.4676 13.0142 15.9652 13.5037L14.2526 15.1724C14.0947 15.0838 13.9321 15.0046 13.779 14.93C13.5876 14.8368 13.4106 14.7482 13.2528 14.6503C11.6932 13.6854 10.2772 12.4269 8.92332 10.8094C8.23922 9.96576 7.77996 9.25725 7.45944 8.53476C7.90913 8.13855 8.33011 7.7237 8.73674 7.31817C8.88026 7.17367 9.02856 7.02917 9.17686 6.88467C9.69353 6.38126 9.97099 5.7986 9.97099 5.20662C9.97099 4.61464 9.69831 4.03198 9.17686 3.52857L7.75126 2.13952C7.58382 1.97637 7.42595 1.81789 7.2633 1.65474C6.94756 1.33778 6.61747 1.01149 6.29216 0.717833C5.79942 0.247046 5.22056 0 4.60822 0C4.00067 0 3.41703 0.247046 2.90515 0.722494L1.11596 2.4658C0.46535 3.09973 0.0969887 3.86884 0.020446 4.75914C-0.0704484 5.87318 0.140044 7.05714 0.685411 8.48814C1.5226 10.7022 2.78555 12.7579 4.66085 14.9533ZM1.18772 4.85703C1.24513 4.23708 1.48911 3.71968 1.94836 3.2722L3.72798 1.53821C4.00545 1.27718 4.31162 1.14201 4.60822 1.14201C4.90004 1.14201 5.19664 1.27718 5.46933 1.54754C5.78985 1.83653 6.09124 2.13952 6.41654 2.46114C6.5792 2.62429 6.74663 2.78743 6.91407 2.95523L8.33968 4.34429C8.63628 4.63329 8.78937 4.92695 8.78937 5.21594C8.78937 5.50494 8.63628 5.7986 8.33968 6.0876C8.19138 6.2321 8.04308 6.38126 7.89477 6.52575C7.44987 6.96391 7.03367 7.37876 6.57441 7.77497C6.56485 7.78429 6.56006 7.78895 6.55049 7.79828C6.15343 8.18516 6.21562 8.5534 6.3113 8.83308C6.31608 8.84706 6.32087 8.85638 6.32565 8.87037C6.69401 9.7327 7.20589 10.5531 8.0048 11.5319C9.43998 13.2566 10.9517 14.5944 12.6165 15.6245C12.8222 15.755 13.0423 15.8576 13.248 15.9601C13.4393 16.0534 13.6163 16.1419 13.7742 16.2398C13.7933 16.2491 13.8077 16.2585 13.8268 16.2678C13.9847 16.347 14.1378 16.3843 14.2909 16.3843C14.6736 16.3843 14.9223 16.1466 15.0037 16.0673L16.7929 14.324C17.0703 14.0537 17.3717 13.9092 17.6683 13.9092C18.0319 13.9092 18.3285 14.1283 18.5151 14.324L21.3998 17.1301C21.9738 17.6895 21.9691 18.2954 21.3854 18.8874C21.1845 19.0972 20.974 19.2976 20.7492 19.5073C20.4143 19.8243 20.0651 20.1506 19.7493 20.5188C19.1992 21.0968 18.5438 21.3672 17.697 21.3672C17.6157 21.3672 17.5296 21.3625 17.4483 21.3579C15.8791 21.26 14.42 20.6633 13.3245 20.1553C10.3489 18.7522 7.73691 16.7619 5.56979 14.2355C3.78539 12.1426 2.58463 10.1942 1.7905 8.10592C1.29775 6.82407 1.11118 5.79394 1.18772 4.85703Z" fill="#223744"/>
</svg>
