<svg width="30" height="30" viewBox="0 0 30 30" fill="none" xmlns="http://www.w3.org/2000/svg">
<circle cx="15" cy="15" r="9.6066" transform="rotate(45 15 15)" fill="#199AD8" stroke="#199AD8" stroke-width="2"/>
<path d="M15.034 16.1736L12.8971 18.3106C12.661 18.5467 12.2782 18.5467 12.0425 18.3106L11.7576 18.0257C11.5214 17.7895 11.5214 17.4067 11.7576 17.171L13.8944 15.0341L11.7572 12.8972C11.5211 12.6611 11.5211 12.2783 11.7572 12.0426L12.042 11.7573C12.2782 11.5212 12.661 11.5212 12.8967 11.7573L15.034 13.8946L17.1709 11.7577C17.407 11.5215 17.7898 11.5215 18.0256 11.7577L18.3104 12.0426C18.5465 12.2787 18.5465 12.6615 18.3104 12.8972L16.1735 15.0341L18.3104 17.171C18.5465 17.4072 18.5465 17.7899 18.3104 18.0257L18.0256 18.3106C17.7894 18.5467 17.4066 18.5467 17.1709 18.3106L15.034 16.1736Z" fill="white"/>
</svg>
