<svg width="23" height="23" viewBox="0 0 23 23" fill="none" xmlns="http://www.w3.org/2000/svg">
<path d="M19.4512 0H3.54883C1.59199 0 0 1.59199 0 3.54883V16.4863V19.4512C0 21.408 1.59199 23 3.54883 23H19.4512C21.408 23 23 21.408 23 19.4512V13.6116C23 13.6114 23 13.6112 23 13.6111V3.54883C23 1.59199 21.408 0 19.4512 0ZM21.6523 19.4512C21.6523 20.6649 20.6649 21.6523 19.4512 21.6523H3.54883C2.33508 21.6523 1.34766 20.6649 1.34766 19.4512V19.2669C1.95311 19.7473 2.71777 20.0352 3.54883 20.0352H16.5762C16.7585 20.0352 16.9312 19.9593 17.0527 19.8377L21.6523 15.2381V19.4512ZM17.25 17.7346V16.4863C17.25 15.2726 18.2374 14.2852 19.4512 14.2852H20.6994L17.25 17.7346ZM21.6523 12.9375H19.4512C18.2846 12.9375 17.248 13.5035 16.6007 14.375H3.54883C3.1767 14.375 2.875 14.6767 2.875 15.0488C2.875 15.421 3.1767 15.7227 3.54883 15.7227H15.986C15.9318 15.9688 15.9023 16.2241 15.9023 16.4863V18.6875H3.54883C2.33508 18.6875 1.34766 17.7001 1.34766 16.4863V7.09766H21.6523V12.9375ZM21.6523 5.75H1.34766V3.54883C1.34766 2.33508 2.33508 1.34766 3.54883 1.34766H19.4512C20.6649 1.34766 21.6523 2.33508 21.6523 3.54883V5.75Z" fill="#223744"/>
</svg>
