<svg width="17" height="15" viewBox="0 0 17 15" fill="none" xmlns="http://www.w3.org/2000/svg">
<path d="M14.2088 2.19436C11.0255 -0.731454 5.84855 -0.731454 2.66525 2.19436C-0.516673 5.12018 -0.516673 9.88062 2.66525 12.8064C4.2569 14.269 6.34712 15 8.43738 15C10.5276 15 12.6171 14.269 14.2088 12.8064C17.3914 9.88065 17.3914 5.12018 14.2088 2.19436ZM11.8036 9.71117C12.0696 9.95565 12.0696 10.3509 11.8036 10.5953C11.671 10.7173 11.4969 10.7786 11.3227 10.7786C11.1486 10.7786 10.9744 10.7173 10.8418 10.5953L8.43734 8.38425L6.03354 10.5947C5.90024 10.7166 5.72609 10.7779 5.55264 10.7779C5.37852 10.7779 5.20437 10.7166 5.07173 10.5947C4.80579 10.3502 4.80579 9.95439 5.07173 9.71052L7.47553 7.50008L5.07106 5.28963C4.80512 5.04514 4.80512 4.64933 5.07106 4.40546C5.33634 4.16097 5.7669 4.16097 6.03284 4.40546L8.43731 6.6159L10.8418 4.40546C11.1077 4.16097 11.5376 4.16097 11.8036 4.40546C12.0695 4.64933 12.0695 5.04514 11.8036 5.28963L9.39909 7.50008L11.8036 9.71117Z" fill="#BED1DB"/>
</svg>
