<svg width="13" height="12" viewBox="0 0 13 12" fill="none" xmlns="http://www.w3.org/2000/svg">
<path d="M8.90906 5.99962L12.6324 9.71198C13.0438 10.1222 13.0438 10.7872 12.6324 11.1967L12.136 11.6916C11.7245 12.1019 11.0575 12.1019 10.6468 11.6916L6.9236 7.97936L3.20029 11.6924C2.7889 12.1025 2.12194 12.1025 1.71119 11.6924L1.21406 11.1975C0.802671 10.7872 0.802671 10.1222 1.21406 9.71262L4.93802 5.99962L1.21483 2.28738C0.803313 1.87708 0.803313 1.21208 1.21483 0.802539L1.71119 0.307633C2.12258 -0.102544 2.78954 -0.102544 3.20029 0.307633L6.9236 4.02L10.6468 0.307633C11.0583 -0.102544 11.7253 -0.102544 12.136 0.307633L12.6324 0.802539C13.0438 1.21284 13.0438 1.87784 12.6324 2.28738L8.90906 5.99962Z" fill="#ADB3BC"/>
</svg>
