<svg width="23" height="23" viewBox="0 0 23 23" fill="none" xmlns="http://www.w3.org/2000/svg">
<path d="M22.3801 10.0039C22.3794 10.0034 22.3788 10.0027 22.3783 10.0021L12.9961 0.620308C12.5962 0.220222 12.0645 0 11.499 0C10.9334 0 10.4017 0.220222 10.0016 0.620308L0.624367 9.9974C0.621209 10.0006 0.617875 10.0039 0.614892 10.007C-0.206336 10.833 -0.204932 12.1731 0.618928 12.997C0.995324 13.3736 1.49227 13.5915 2.02379 13.6145C2.04555 13.6166 2.06731 13.6176 2.08924 13.6176H2.46301V20.5219C2.46301 21.8884 3.57482 23 4.94125 23H8.61186C8.98405 23 9.28569 22.6982 9.28569 22.3262V16.9131C9.28569 16.2896 9.79299 15.7825 10.4165 15.7825H12.5815C13.2049 15.7825 13.7121 16.2896 13.7121 16.9131V22.3262C13.7121 22.6982 14.0137 23 14.3859 23H18.0565C19.4231 23 20.5348 21.8884 20.5348 20.5219V13.6176H20.8815C21.4469 13.6176 21.9786 13.3974 22.3788 12.9972C23.2036 12.1721 23.2039 10.8295 22.3801 10.0039ZM21.4258 12.0443C21.2804 12.1898 21.087 12.27 20.8815 12.27H19.8609C19.4887 12.27 19.1871 12.5716 19.1871 12.9438V20.5219C19.1871 21.1452 18.68 21.6523 18.0565 21.6523H15.0597V16.9131C15.0597 15.5467 13.9481 14.4348 12.5815 14.4348H10.4165C9.04985 14.4348 7.93803 15.5467 7.93803 16.9131V21.6523H4.94125C4.31796 21.6523 3.81066 21.1452 3.81066 20.5219V12.9438C3.81066 12.5716 3.50902 12.27 3.13683 12.27H2.13381C2.12328 12.2693 2.11293 12.2688 2.10223 12.2686C1.90148 12.2651 1.7132 12.1854 1.57211 12.0442C1.27205 11.7441 1.27205 11.2557 1.57211 10.9555C1.57229 10.9555 1.57229 10.9553 1.57246 10.9551L1.57299 10.9546L10.9548 1.57314C11.1001 1.42767 11.2933 1.34766 11.499 1.34766C11.7045 1.34766 11.8977 1.42767 12.0431 1.57314L21.4228 10.9527C21.4242 10.9541 21.4258 10.9555 21.4272 10.9569C21.7257 11.2575 21.7252 11.7448 21.4258 12.0443Z" fill="#199AD8"/>
</svg>
