<svg width="30" height="31" viewBox="0 0 30 31" fill="none" xmlns="http://www.w3.org/2000/svg">
<g clip-path="url(#clip0_821:5917)">
<path d="M18.5266 5.51337L2.0202 22.021C1.93715 22.1043 1.87719 22.2094 1.84864 22.3225L0.019057 29.666C-0.035671 29.8871 0.0292887 30.1221 0.190617 30.2835C0.312684 30.4055 0.47901 30.4731 0.649142 30.4731C0.701253 30.4731 0.754553 30.4667 0.806426 30.4536L8.14997 28.6238C8.26442 28.5952 8.3684 28.5355 8.45145 28.4525L24.9593 11.946L18.5266 5.51337Z" fill="#199AD8"/>
<path d="M29.0484 3.2626L27.211 1.42517C25.9829 0.19712 23.8426 0.198309 22.616 1.42517L20.3652 3.67591L26.7977 10.1084L29.0484 7.8576C29.6618 7.24441 29.9997 6.42825 29.9997 5.56022C29.9997 4.69219 29.6618 3.87603 29.0484 3.2626Z" fill="#199AD8"/>
</g>
<defs>
<clipPath id="clip0_821:5917">
<rect width="30" height="30" fill="white" transform="translate(0 0.474548)"/>
</clipPath>
</defs>
</svg>
