<svg width="30" height="30" viewBox="0 0 30 30" fill="none" xmlns="http://www.w3.org/2000/svg">
<circle cx="15" cy="15" r="15" fill="#BDD0DA"/>
<path d="M14.6697 14.4476C15.583 14.4476 16.3736 14.12 17.0199 13.4738C17.6659 12.8277 17.9936 12.0371 17.9936 11.1237C17.9936 10.2107 17.666 9.41997 17.0198 8.77363C16.3735 8.12759 15.5828 7.80005 14.6697 7.80005C13.7563 7.80005 12.9658 8.12759 12.3196 8.77373C11.6735 9.41987 11.3458 10.2106 11.3458 11.1237C11.3458 12.0371 11.6735 12.8278 12.3196 13.4739C12.966 14.1199 13.7567 14.4476 14.6697 14.4476V14.4476ZM12.8915 9.34554C13.3873 8.84975 13.9689 8.60875 14.6697 8.60875C15.3704 8.60875 15.9521 8.84975 16.448 9.34554C16.9438 9.84143 17.1849 10.4231 17.1849 11.1237C17.1849 11.8245 16.9438 12.4061 16.448 12.902C15.9521 13.3979 15.3704 13.6389 14.6697 13.6389C13.9691 13.6389 13.3875 13.3978 12.8915 12.902C12.3956 12.4062 12.1545 11.8245 12.1545 11.1237C12.1545 10.4231 12.3956 9.84143 12.8915 9.34554Z" fill="white"/>
<path d="M20.4855 18.4115C20.4669 18.1426 20.4292 17.8493 20.3737 17.5395C20.3177 17.2275 20.2456 16.9325 20.1593 16.6628C20.07 16.3841 19.9488 16.1089 19.7988 15.8452C19.6432 15.5714 19.4605 15.3331 19.2554 15.1369C19.0409 14.9317 18.7783 14.7667 18.4747 14.6464C18.1721 14.5267 17.8368 14.466 17.478 14.466C17.3372 14.466 17.2009 14.5238 16.9378 14.6951C16.7759 14.8008 16.5865 14.9229 16.3751 15.058C16.1943 15.1731 15.9494 15.2811 15.6469 15.3788C15.3518 15.4743 15.0521 15.5227 14.7563 15.5227C14.4607 15.5227 14.161 15.4743 13.8657 15.3788C13.5635 15.2812 13.3185 15.1733 13.1381 15.0581C12.9286 14.9243 12.7391 14.8021 12.5748 14.695C12.3119 14.5237 12.1756 14.4659 12.0348 14.4659C11.6759 14.4659 11.3407 14.5267 11.0382 14.6465C10.7348 14.7666 10.4721 14.9316 10.2574 15.137C10.0523 15.3333 9.86956 15.5715 9.71415 15.8452C9.56433 16.1089 9.44304 16.384 9.35376 16.6629C9.26753 16.9326 9.19541 17.2275 9.1394 17.5395C9.08381 17.8489 9.04622 18.1423 9.02758 18.4118C9.00927 18.6754 9 18.9496 9 19.2268C9 19.9471 9.229 20.5303 9.68057 20.9604C10.1266 21.3848 10.7166 21.6 11.4343 21.6H18.0791C18.7966 21.6 19.3867 21.3848 19.8328 20.9604C20.2844 20.5306 20.5134 19.9472 20.5134 19.2266C20.5133 18.9486 20.504 18.6743 20.4855 18.4115V18.4115ZM19.2752 20.3745C18.9805 20.655 18.5892 20.7913 18.079 20.7913H11.4343C10.924 20.7913 10.5328 20.655 10.2382 20.3746C9.94915 20.0995 9.8087 19.7239 9.8087 19.2268C9.8087 18.9682 9.81723 18.7129 9.83429 18.4677C9.85092 18.2273 9.88493 17.9631 9.93536 17.6824C9.98516 17.4052 10.0485 17.145 10.1239 16.9095C10.1963 16.6837 10.2949 16.4601 10.4173 16.2446C10.534 16.0393 10.6684 15.8632 10.8166 15.7213C10.9553 15.5885 11.13 15.4798 11.336 15.3984C11.5264 15.323 11.7405 15.2817 11.9729 15.2755C12.0012 15.2905 12.0516 15.3193 12.1333 15.3726C12.2996 15.4809 12.4912 15.6045 12.703 15.7398C12.9418 15.892 13.2494 16.0295 13.617 16.1482C13.9928 16.2697 14.376 16.3314 14.7564 16.3314C15.1368 16.3314 15.5201 16.2697 15.8957 16.1483C16.2636 16.0294 16.5711 15.892 16.8102 15.7396C17.027 15.601 17.2132 15.481 17.3795 15.3726C17.4612 15.3194 17.5116 15.2905 17.54 15.2755C17.7724 15.2817 17.9865 15.323 18.177 15.3984C18.3829 15.4798 18.5576 15.5886 18.6963 15.7213C18.8445 15.8631 18.9789 16.0392 19.0957 16.2447C19.2181 16.4601 19.3169 16.6838 19.3891 16.9094C19.4646 17.1453 19.5281 17.4053 19.5778 17.6823C19.6281 17.9635 19.6622 18.2278 19.6788 18.4679V18.4681C19.696 18.7122 19.7046 18.9674 19.7047 19.2268C19.7046 19.724 19.5642 20.0995 19.2752 20.3745V20.3745Z" fill="white"/>
</svg>
