<svg width="20" height="23" viewBox="0 0 20 23" fill="none" xmlns="http://www.w3.org/2000/svg">
<path d="M9.44946 11.0792C10.9715 11.0792 12.2894 10.5333 13.3664 9.45623C14.4432 8.37934 14.9893 7.06169 14.9893 5.53943C14.9893 4.0177 14.4433 2.69988 13.3663 1.62263C12.2892 0.545906 10.9714 0 9.44946 0C7.9272 0 6.60955 0.545906 5.53265 1.6228C4.45575 2.6997 3.90967 4.01753 3.90967 5.53943C3.90967 7.06169 4.45575 8.37951 5.53265 9.45641C6.6099 10.5331 7.92773 11.0792 9.44946 11.0792ZM6.48584 2.57581C7.31216 1.7495 8.28149 1.34783 9.44946 1.34783C10.6173 1.34783 11.5868 1.7495 12.4133 2.57581C13.2396 3.40231 13.6414 4.37181 13.6414 5.53943C13.6414 6.7074 13.2396 7.67673 12.4133 8.50322C11.5868 9.32972 10.6173 9.73138 9.44946 9.73138C8.28184 9.73138 7.31251 9.32954 6.48584 8.50322C5.65934 7.67691 5.2575 6.7074 5.2575 5.53943C5.2575 4.37181 5.65934 3.40231 6.48584 2.57581Z" fill="#223744"/>
<path d="M19.1426 17.6859C19.1115 17.2377 19.0487 16.7488 18.9562 16.2326C18.8628 15.7125 18.7426 15.2208 18.5988 14.7714C18.45 14.3069 18.248 13.8482 17.9979 13.4086C17.7387 12.9524 17.4341 12.5551 17.0923 12.2282C16.7348 11.8862 16.2972 11.6112 15.7911 11.4107C15.2868 11.2112 14.7279 11.1101 14.1301 11.1101C13.8953 11.1101 13.6682 11.2064 13.2297 11.4919C12.9598 11.6679 12.6441 11.8715 12.2918 12.0966C11.9905 12.2886 11.5823 12.4684 11.0782 12.6313C10.5863 12.7904 10.0869 12.8712 9.59383 12.8712C9.10109 12.8712 8.60168 12.7904 8.10947 12.6313C7.60585 12.4686 7.19752 12.2888 6.89675 12.0968C6.54773 11.8738 6.23187 11.6702 5.95795 11.4917C5.51979 11.2062 5.29272 11.1099 5.05793 11.1099C4.45991 11.1099 3.90119 11.2112 3.39705 11.4109C2.89133 11.6111 2.45351 11.886 2.09572 12.2284C1.75389 12.5555 1.44926 12.9526 1.19026 13.4086C0.940554 13.8482 0.738405 14.3067 0.589601 14.7716C0.445886 15.221 0.325684 15.7125 0.232331 16.2326C0.139679 16.7481 0.0770342 17.2372 0.0459749 17.6864C0.0154419 18.1256 0 18.5827 0 19.0446C0 20.2452 0.381661 21.2172 1.13428 21.934C1.8776 22.6413 2.86097 23 4.05719 23H15.1319C16.3277 23 17.3111 22.6413 18.0546 21.934C18.8074 21.2177 19.1891 20.2454 19.1891 19.0444C19.1889 18.581 19.1733 18.1239 19.1426 17.6859ZM17.1253 20.9575C16.6341 21.4249 15.982 21.6522 15.1317 21.6522H4.05719C3.20666 21.6522 2.55459 21.4249 2.0636 20.9576C1.58192 20.4991 1.34784 19.8732 1.34784 19.0446C1.34784 18.6136 1.36205 18.1881 1.39048 17.7796C1.4182 17.3788 1.47488 16.9385 1.55893 16.4707C1.64193 16.0087 1.74757 15.5751 1.87321 15.1825C1.99376 14.8061 2.15819 14.4334 2.36209 14.0744C2.55669 13.7322 2.7806 13.4387 3.02767 13.2021C3.25877 12.9808 3.55007 12.7997 3.8933 12.6639C4.21073 12.5383 4.56748 12.4695 4.95475 12.4591C5.00196 12.4842 5.08601 12.5321 5.22218 12.6209C5.49926 12.8015 5.81863 13.0075 6.17168 13.233C6.56966 13.4867 7.08241 13.7159 7.695 13.9137C8.32127 14.1162 8.96001 14.219 9.594 14.219C10.228 14.219 10.8669 14.1162 11.4928 13.9138C12.1059 13.7157 12.6185 13.4867 13.017 13.2326C13.3783 13.0017 13.6887 12.8017 13.9658 12.6209C14.102 12.5323 14.186 12.4842 14.2333 12.4591C14.6207 12.4695 14.9774 12.5383 15.2951 12.6639C15.6381 12.7997 15.9294 12.981 16.1605 13.2021C16.4076 13.4385 16.6315 13.732 16.8261 14.0746C17.0302 14.4334 17.1948 14.8063 17.3151 15.1824C17.441 15.5754 17.5468 16.0089 17.6296 16.4705C17.7135 16.9392 17.7703 17.3797 17.7981 17.7798V17.7801C17.8267 18.187 17.841 18.6124 17.8412 19.0446C17.841 19.8734 17.607 20.4991 17.1253 20.9575Z" fill="#223744"/>
</svg>
